<svg xmlns="http://www.w3.org/2000/svg" viewBox="0 0 1600 900" width="1600" height="900" role="img" aria-label="Demo placeholder illustration">
<defs><linearGradient id="bg" x1="0" y1="0" x2="0" y2="1"><stop offset="0" stop-color="#2a0f14"/><stop offset="1" stop-color="#1a080c"/></linearGradient></defs>
<rect width="1600" height="900" fill="url(#bg)"/><rect x="-20" y="172" width="91" height="728" fill="#6b2430"/><rect x="75" y="137" width="130" height="763" fill="#6b2430"/><rect x="210" y="345" width="65" height="555" fill="#6b2430"/><rect x="278" y="257" width="136" height="643" fill="#6b2430"/><rect x="419" y="389" width="125" height="511" fill="#6b2430"/><rect x="547" y="262" width="117" height="638" fill="#6b2430"/><rect x="668" y="131" width="84" height="769" fill="#6b2430"/><rect x="757" y="131" width="172" height="769" fill="#6b2430"/><rect x="933" y="343" width="66" height="557" fill="#6b2430"/><rect x="1003" y="194" width="132" height="706" fill="#6b2430"/><rect x="1138" y="153" width="142" height="747" fill="#6b2430"/><rect x="1284" y="229" width="94" height="671" fill="#6b2430"/><rect x="1382" y="350" width="81" height="550" fill="#6b2430"/><rect x="1467" y="294" width="125" height="606" fill="#6b2430"/><rect x="1596" y="178" width="162" height="722" fill="#6b2430"/><rect x="-20" y="412" width="82" height="488" fill="#471820"/><rect x="66" y="439" width="76" height="461" fill="#471820"/><rect x="146" y="313" width="88" height="587" fill="#471820"/><rect x="238" y="451" width="163" height="449" fill="#471820"/><rect x="405" y="407" width="154" height="493" fill="#471820"/><rect x="563" y="442" width="169" height="458" fill="#471820"/><rect x="736" y="347" width="148" height="553" fill="#471820"/><rect x="888" y="498" width="171" height="402" fill="#471820"/><rect x="1062" y="364" width="97" height="536" fill="#471820"/><rect x="1164" y="496" width="116" height="404" fill="#471820"/><rect x="1283" y="383" width="164" height="517" fill="#471820"/><rect x="1452" y="493" width="177" height="407" fill="#471820"/><rect x="-20" y="520" width="108" height="380" fill="#1a080c"/><rect x="92" y="523" width="170" height="377" fill="#1a080c"/><rect x="104" y="543" width="8" height="12" fill="#f2b705" opacity="0.55"/><rect x="126" y="543" width="8" height="12" fill="#f2b705" opacity="0.55"/><rect x="170" y="543" width="8" height="12" fill="#f2b705" opacity="0.55"/><rect x="236" y="543" width="8" height="12" fill="#f2b705" opacity="0.55"/><rect x="104" y="571" width="8" height="12" fill="#f2b705" opacity="0.55"/><rect x="170" y="571" width="8" height="12" fill="#f2b705" opacity="0.55"/><rect x="214" y="571" width="8" height="12" fill="#f2b705" opacity="0.55"/><rect x="236" y="571" width="8" height="12" fill="#f2b705" opacity="0.55"/><rect x="104" y="599" width="8" height="12" fill="#f2b705" opacity="0.55"/><rect x="148" y="627" width="8" height="12" fill="#f2b705" opacity="0.55"/><rect x="170" y="627" width="8" height="12" fill="#f2b705" opacity="0.55"/><rect x="214" y="627" width="8" height="12" fill="#f2b705" opacity="0.55"/><rect x="126" y="655" width="8" height="12" fill="#f2b705" opacity="0.55"/><rect x="170" y="655" width="8" height="12" fill="#f2b705" opacity="0.55"/><rect x="192" y="655" width="8" height="12" fill="#f2b705" opacity="0.55"/><rect x="236" y="655" width="8" height="12" fill="#f2b705" opacity="0.55"/><rect x="104" y="683" width="8" height="12" fill="#f2b705" opacity="0.55"/><rect x="148" y="683" width="8" height="12" fill="#f2b705" opacity="0.55"/><rect x="192" y="683" width="8" height="12" fill="#f2b705" opacity="0.55"/><rect x="266" y="576" width="137" height="324" fill="#1a080c"/><rect x="300" y="596" width="8" height="12" fill="#f2b705" opacity="0.55"/><rect x="322" y="596" width="8" height="12" fill="#f2b705" opacity="0.55"/><rect x="344" y="596" width="8" height="12" fill="#f2b705" opacity="0.55"/><rect x="366" y="596" width="8" height="12" fill="#f2b705" opacity="0.55"/><rect x="388" y="596" width="8" height="12" fill="#f2b705" opacity="0.55"/><rect x="278" y="624" width="8" height="12" fill="#f2b705" opacity="0.55"/><rect x="322" y="624" width="8" height="12" fill="#f2b705" opacity="0.55"/><rect x="366" y="624" width="8" height="12" fill="#f2b705" opacity="0.55"/><rect x="322" y="652" width="8" height="12" fill="#f2b705" opacity="0.55"/><rect x="388" y="652" width="8" height="12" fill="#f2b705" opacity="0.55"/><rect x="322" y="680" width="8" height="12" fill="#f2b705" opacity="0.55"/><rect x="344" y="680" width="8" height="12" fill="#f2b705" opacity="0.55"/><rect x="388" y="680" width="8" height="12" fill="#f2b705" opacity="0.55"/><rect x="407" y="606" width="76" height="294" fill="#1a080c"/><rect x="487" y="551" width="96" height="349" fill="#1a080c"/><rect x="587" y="517" width="88" height="383" fill="#1a080c"/><rect x="621" y="537" width="8" height="12" fill="#f2b705" opacity="0.55"/><rect x="599" y="565" width="8" height="12" fill="#f2b705" opacity="0.55"/><rect x="621" y="565" width="8" height="12" fill="#f2b705" opacity="0.55"/><rect x="643" y="565" width="8" height="12" fill="#f2b705" opacity="0.55"/><rect x="599" y="593" width="8" height="12" fill="#f2b705" opacity="0.55"/><rect x="643" y="593" width="8" height="12" fill="#f2b705" opacity="0.55"/><rect x="621" y="621" width="8" height="12" fill="#f2b705" opacity="0.55"/><rect x="643" y="621" width="8" height="12" fill="#f2b705" opacity="0.55"/><rect x="621" y="649" width="8" height="12" fill="#f2b705" opacity="0.55"/><rect x="599" y="677" width="8" height="12" fill="#f2b705" opacity="0.55"/><rect x="621" y="677" width="8" height="12" fill="#f2b705" opacity="0.55"/><rect x="643" y="677" width="8" height="12" fill="#f2b705" opacity="0.55"/><rect x="679" y="600" width="127" height="300" fill="#1a080c"/><rect x="691" y="620" width="8" height="12" fill="#f2b705" opacity="0.55"/><rect x="713" y="620" width="8" height="12" fill="#f2b705" opacity="0.55"/><rect x="757" y="620" width="8" height="12" fill="#f2b705" opacity="0.55"/><rect x="691" y="648" width="8" height="12" fill="#f2b705" opacity="0.55"/><rect x="757" y="648" width="8" height="12" fill="#f2b705" opacity="0.55"/><rect x="713" y="676" width="8" height="12" fill="#f2b705" opacity="0.55"/><rect x="779" y="676" width="8" height="12" fill="#f2b705" opacity="0.55"/><rect x="811" y="605" width="120" height="295" fill="#1a080c"/><rect x="845" y="625" width="8" height="12" fill="#f2b705" opacity="0.55"/><rect x="867" y="625" width="8" height="12" fill="#f2b705" opacity="0.55"/><rect x="845" y="653" width="8" height="12" fill="#f2b705" opacity="0.55"/><rect x="911" y="653" width="8" height="12" fill="#f2b705" opacity="0.55"/><rect x="823" y="681" width="8" height="12" fill="#f2b705" opacity="0.55"/><rect x="889" y="681" width="8" height="12" fill="#f2b705" opacity="0.55"/><rect x="935" y="518" width="155" height="382" fill="#1a080c"/><rect x="947" y="538" width="8" height="12" fill="#f2b705" opacity="0.55"/><rect x="969" y="538" width="8" height="12" fill="#f2b705" opacity="0.55"/><rect x="991" y="538" width="8" height="12" fill="#f2b705" opacity="0.55"/><rect x="1013" y="538" width="8" height="12" fill="#f2b705" opacity="0.55"/><rect x="947" y="566" width="8" height="12" fill="#f2b705" opacity="0.55"/><rect x="947" y="594" width="8" height="12" fill="#f2b705" opacity="0.55"/><rect x="991" y="594" width="8" height="12" fill="#f2b705" opacity="0.55"/><rect x="991" y="622" width="8" height="12" fill="#f2b705" opacity="0.55"/><rect x="1057" y="622" width="8" height="12" fill="#f2b705" opacity="0.55"/><rect x="991" y="650" width="8" height="12" fill="#f2b705" opacity="0.55"/><rect x="1013" y="650" width="8" height="12" fill="#f2b705" opacity="0.55"/><rect x="947" y="678" width="8" height="12" fill="#f2b705" opacity="0.55"/><rect x="969" y="678" width="8" height="12" fill="#f2b705" opacity="0.55"/><rect x="991" y="678" width="8" height="12" fill="#f2b705" opacity="0.55"/><rect x="1013" y="678" width="8" height="12" fill="#f2b705" opacity="0.55"/><rect x="1093" y="493" width="161" height="407" fill="#1a080c"/><rect x="1105" y="541" width="8" height="12" fill="#f2b705" opacity="0.55"/><rect x="1171" y="541" width="8" height="12" fill="#f2b705" opacity="0.55"/><rect x="1237" y="541" width="8" height="12" fill="#f2b705" opacity="0.55"/><rect x="1149" y="569" width="8" height="12" fill="#f2b705" opacity="0.55"/><rect x="1215" y="569" width="8" height="12" fill="#f2b705" opacity="0.55"/><rect x="1237" y="569" width="8" height="12" fill="#f2b705" opacity="0.55"/><rect x="1105" y="597" width="8" height="12" fill="#f2b705" opacity="0.55"/><rect x="1127" y="597" width="8" height="12" fill="#f2b705" opacity="0.55"/><rect x="1171" y="597" width="8" height="12" fill="#f2b705" opacity="0.55"/><rect x="1193" y="597" width="8" height="12" fill="#f2b705" opacity="0.55"/><rect x="1127" y="625" width="8" height="12" fill="#f2b705" opacity="0.55"/><rect x="1149" y="625" width="8" height="12" fill="#f2b705" opacity="0.55"/><rect x="1171" y="625" width="8" height="12" fill="#f2b705" opacity="0.55"/><rect x="1127" y="653" width="8" height="12" fill="#f2b705" opacity="0.55"/><rect x="1149" y="653" width="8" height="12" fill="#f2b705" opacity="0.55"/><rect x="1127" y="681" width="8" height="12" fill="#f2b705" opacity="0.55"/><rect x="1193" y="681" width="8" height="12" fill="#f2b705" opacity="0.55"/><rect x="1237" y="681" width="8" height="12" fill="#f2b705" opacity="0.55"/><rect x="1259" y="517" width="97" height="383" fill="#1a080c"/><rect x="1271" y="537" width="8" height="12" fill="#f2b705" opacity="0.55"/><rect x="1315" y="537" width="8" height="12" fill="#f2b705" opacity="0.55"/><rect x="1337" y="565" width="8" height="12" fill="#f2b705" opacity="0.55"/><rect x="1271" y="621" width="8" height="12" fill="#f2b705" opacity="0.55"/><rect x="1293" y="621" width="8" height="12" fill="#f2b705" opacity="0.55"/><rect x="1315" y="621" width="8" height="12" fill="#f2b705" opacity="0.55"/><rect x="1315" y="649" width="8" height="12" fill="#f2b705" opacity="0.55"/><rect x="1271" y="677" width="8" height="12" fill="#f2b705" opacity="0.55"/><rect x="1293" y="677" width="8" height="12" fill="#f2b705" opacity="0.55"/><rect x="1315" y="677" width="8" height="12" fill="#f2b705" opacity="0.55"/><rect x="1337" y="677" width="8" height="12" fill="#f2b705" opacity="0.55"/><rect x="1360" y="537" width="73" height="363" fill="#1a080c"/><rect x="1394" y="557" width="8" height="12" fill="#f2b705" opacity="0.55"/><rect x="1416" y="585" width="8" height="12" fill="#f2b705" opacity="0.55"/><rect x="1372" y="613" width="8" height="12" fill="#f2b705" opacity="0.55"/><rect x="1416" y="613" width="8" height="12" fill="#f2b705" opacity="0.55"/><rect x="1372" y="641" width="8" height="12" fill="#f2b705" opacity="0.55"/><rect x="1416" y="641" width="8" height="12" fill="#f2b705" opacity="0.55"/><rect x="1372" y="669" width="8" height="12" fill="#f2b705" opacity="0.55"/><rect x="1394" y="669" width="8" height="12" fill="#f2b705" opacity="0.55"/><rect x="1372" y="697" width="8" height="12" fill="#f2b705" opacity="0.55"/><rect x="1394" y="697" width="8" height="12" fill="#f2b705" opacity="0.55"/><rect x="1437" y="576" width="105" height="324" fill="#1a080c"/><rect x="1449" y="596" width="8" height="12" fill="#f2b705" opacity="0.55"/><rect x="1493" y="596" width="8" height="12" fill="#f2b705" opacity="0.55"/><rect x="1449" y="624" width="8" height="12" fill="#f2b705" opacity="0.55"/><rect x="1515" y="624" width="8" height="12" fill="#f2b705" opacity="0.55"/><rect x="1449" y="652" width="8" height="12" fill="#f2b705" opacity="0.55"/><rect x="1471" y="652" width="8" height="12" fill="#f2b705" opacity="0.55"/><rect x="1515" y="652" width="8" height="12" fill="#f2b705" opacity="0.55"/><rect x="1449" y="680" width="8" height="12" fill="#f2b705" opacity="0.55"/><rect x="1471" y="680" width="8" height="12" fill="#f2b705" opacity="0.55"/><rect x="1493" y="680" width="8" height="12" fill="#f2b705" opacity="0.55"/><rect x="1546" y="493" width="117" height="407" fill="#1a080c"/><rect x="1624" y="513" width="8" height="12" fill="#f2b705" opacity="0.55"/><rect x="1558" y="541" width="8" height="12" fill="#f2b705" opacity="0.55"/><rect x="1602" y="541" width="8" height="12" fill="#f2b705" opacity="0.55"/><rect x="1646" y="541" width="8" height="12" fill="#f2b705" opacity="0.55"/><rect x="1646" y="569" width="8" height="12" fill="#f2b705" opacity="0.55"/><rect x="1580" y="597" width="8" height="12" fill="#f2b705" opacity="0.55"/><rect x="1580" y="625" width="8" height="12" fill="#f2b705" opacity="0.55"/><rect x="1602" y="625" width="8" height="12" fill="#f2b705" opacity="0.55"/><rect x="1558" y="653" width="8" height="12" fill="#f2b705" opacity="0.55"/><rect x="1602" y="653" width="8" height="12" fill="#f2b705" opacity="0.55"/><rect x="1624" y="681" width="8" height="12" fill="#f2b705" opacity="0.55"/><g font-family="Arial, Helvetica, sans-serif" font-weight="700" letter-spacing="3"><rect x="702" y="828" width="196" height="40" fill="#000" opacity="0.45"/><text x="718" y="855" font-size="20" fill="#fff" opacity="0.9">DEMO IMAGE</text></g></svg>