<svg xmlns="http://www.w3.org/2000/svg" viewBox="0 0 1600 900" width="1600" height="900" role="img" aria-label="Demo placeholder illustration">
<defs><linearGradient id="bg" x1="0" y1="0" x2="0" y2="1"><stop offset="0" stop-color="#0c1f3a"/><stop offset="1" stop-color="#071426"/></linearGradient></defs>
<rect width="1600" height="900" fill="url(#bg)"/><rect x="120" y="363.4076366946101" width="115.0744498660788" height="416.5923633053899" fill="#173157" opacity="1" transform="rotate(0 120 780)"/><rect x="140" y="403.4076366946101" width="70" height="8" fill="#071426" opacity="0.5" transform="rotate(0 120 780)"/><rect x="270" y="286.153057385236" width="112.9369434574619" height="493.846942614764" fill="#2c4a78" opacity="1" transform="rotate(0 270 780)"/><rect x="290" y="326.153057385236" width="70" height="8" fill="#071426" opacity="0.5" transform="rotate(0 270 780)"/><rect x="420" y="414.701087847352" width="111.89644809346646" height="365.298912152648" fill="#d71920" opacity="0.8" transform="rotate(0 420 780)"/><rect x="440" y="454.701087847352" width="70" height="8" fill="#071426" opacity="0.5" transform="rotate(0 420 780)"/><rect x="570" y="320.15863282606006" width="119.89087969530374" height="459.84136717393994" fill="#173157" opacity="1" transform="rotate(0 570 780)"/><rect x="590" y="360.15863282606006" width="70" height="8" fill="#071426" opacity="0.5" transform="rotate(0 570 780)"/><rect x="720" y="407.53815088421106" width="120.66130531486124" height="372.46184911578894" fill="#2c4a78" opacity="1" transform="rotate(0 720 780)"/><rect x="740" y="447.53815088421106" width="70" height="8" fill="#071426" opacity="0.5" transform="rotate(0 720 780)"/><rect x="870" y="280.49421140924096" width="121.99676277581602" height="499.50578859075904" fill="#d71920" opacity="0.8" transform="rotate(0 870 780)"/><rect x="890" y="320.49421140924096" width="70" height="8" fill="#071426" opacity="0.5" transform="rotate(0 870 780)"/><rect x="1020" y="257.19225376844406" width="111.10096752177924" height="522.8077462315559" fill="#173157" opacity="1" transform="rotate(-12 1020 780)"/><rect x="1040" y="297.19225376844406" width="70" height="8" fill="#071426" opacity="0.5" transform="rotate(-12 1020 780)"/><rect x="1170" y="293.144509550184" width="128.2454574527219" height="486.855490449816" fill="#2c4a78" opacity="1" transform="rotate(0 1170 780)"/><rect x="1190" y="333.144509550184" width="70" height="8" fill="#071426" opacity="0.5" transform="rotate(0 1170 780)"/><rect x="1320" y="372.12148632854223" width="113.01825778093189" height="407.87851367145777" fill="#d71920" opacity="0.8" transform="rotate(0 1320 780)"/><rect x="1340" y="412.12148632854223" width="70" height="8" fill="#071426" opacity="0.5" transform="rotate(0 1320 780)"/><rect y="780" width="1600" height="120" fill="#071426"/><g font-family="Arial, Helvetica, sans-serif" font-weight="700" letter-spacing="3"><rect x="702" y="828" width="196" height="40" fill="#000" opacity="0.45"/><text x="718" y="855" font-size="20" fill="#fff" opacity="0.9">DEMO IMAGE</text></g></svg>