<svg xmlns="http://www.w3.org/2000/svg" viewBox="0 0 1600 900" width="1600" height="900" role="img" aria-label="Demo placeholder illustration">
<defs><linearGradient id="bg" x1="0" y1="0" x2="0" y2="1"><stop offset="0" stop-color="#0c1f3a"/><stop offset="1" stop-color="#071426"/></linearGradient></defs>
<rect width="1600" height="900" fill="url(#bg)"/><rect x="-20" y="332" width="89" height="568" fill="#2c4a78"/><rect x="73" y="392" width="102" height="508" fill="#2c4a78"/><rect x="179" y="161" width="146" height="739" fill="#2c4a78"/><rect x="329" y="200" width="70" height="700" fill="#2c4a78"/><rect x="403" y="351" width="72" height="549" fill="#2c4a78"/><rect x="479" y="334" width="155" height="566" fill="#2c4a78"/><rect x="638" y="308" width="103" height="592" fill="#2c4a78"/><rect x="745" y="222" width="122" height="678" fill="#2c4a78"/><rect x="871" y="271" width="107" height="629" fill="#2c4a78"/><rect x="982" y="295" width="140" height="605" fill="#2c4a78"/><rect x="1127" y="195" width="75" height="705" fill="#2c4a78"/><rect x="1206" y="404" width="153" height="496" fill="#2c4a78"/><rect x="1363" y="377" width="96" height="523" fill="#2c4a78"/><rect x="1463" y="400" width="129" height="500" fill="#2c4a78"/><rect x="1596" y="138" width="103" height="762" fill="#2c4a78"/><rect x="-20" y="355" width="157" height="545" fill="#173157"/><rect x="141" y="512" width="176" height="388" fill="#173157"/><rect x="321" y="345" width="103" height="555" fill="#173157"/><rect x="428" y="474" width="64" height="426" fill="#173157"/><rect x="496" y="482" width="163" height="418" fill="#173157"/><rect x="663" y="323" width="94" height="577" fill="#173157"/><rect x="761" y="307" width="150" height="593" fill="#173157"/><rect x="915" y="487" width="147" height="413" fill="#173157"/><rect x="1066" y="387" width="115" height="513" fill="#173157"/><rect x="1186" y="428" width="128" height="472" fill="#173157"/><rect x="1318" y="381" width="90" height="519" fill="#173157"/><rect x="1413" y="512" width="115" height="388" fill="#173157"/><rect x="1531" y="491" width="151" height="409" fill="#173157"/><rect x="-20" y="520" width="64" height="380" fill="#071426"/><rect x="-8" y="540" width="8" height="12" fill="#d71920" opacity="0.55"/><rect x="-8" y="568" width="8" height="12" fill="#d71920" opacity="0.55"/><rect x="14" y="652" width="8" height="12" fill="#d71920" opacity="0.55"/><rect x="48" y="600" width="125" height="300" fill="#071426"/><rect x="126" y="620" width="8" height="12" fill="#d71920" opacity="0.55"/><rect x="148" y="620" width="8" height="12" fill="#d71920" opacity="0.55"/><rect x="126" y="648" width="8" height="12" fill="#d71920" opacity="0.55"/><rect x="82" y="676" width="8" height="12" fill="#d71920" opacity="0.55"/><rect x="104" y="676" width="8" height="12" fill="#d71920" opacity="0.55"/><rect x="126" y="676" width="8" height="12" fill="#d71920" opacity="0.55"/><rect x="148" y="676" width="8" height="12" fill="#d71920" opacity="0.55"/><rect x="177" y="528" width="64" height="372" fill="#071426"/><rect x="245" y="569" width="80" height="331" fill="#071426"/><rect x="279" y="589" width="8" height="12" fill="#d71920" opacity="0.55"/><rect x="301" y="589" width="8" height="12" fill="#d71920" opacity="0.55"/><rect x="257" y="617" width="8" height="12" fill="#d71920" opacity="0.55"/><rect x="301" y="617" width="8" height="12" fill="#d71920" opacity="0.55"/><rect x="301" y="645" width="8" height="12" fill="#d71920" opacity="0.55"/><rect x="329" y="554" width="140" height="346" fill="#071426"/><rect x="341" y="574" width="8" height="12" fill="#d71920" opacity="0.55"/><rect x="363" y="574" width="8" height="12" fill="#d71920" opacity="0.55"/><rect x="385" y="574" width="8" height="12" fill="#d71920" opacity="0.55"/><rect x="429" y="574" width="8" height="12" fill="#d71920" opacity="0.55"/><rect x="451" y="574" width="8" height="12" fill="#d71920" opacity="0.55"/><rect x="341" y="602" width="8" height="12" fill="#d71920" opacity="0.55"/><rect x="385" y="630" width="8" height="12" fill="#d71920" opacity="0.55"/><rect x="407" y="630" width="8" height="12" fill="#d71920" opacity="0.55"/><rect x="341" y="658" width="8" height="12" fill="#d71920" opacity="0.55"/><rect x="385" y="658" width="8" height="12" fill="#d71920" opacity="0.55"/><rect x="407" y="658" width="8" height="12" fill="#d71920" opacity="0.55"/><rect x="341" y="686" width="8" height="12" fill="#d71920" opacity="0.55"/><rect x="473" y="565" width="120" height="335" fill="#071426"/><rect x="485" y="585" width="8" height="12" fill="#d71920" opacity="0.55"/><rect x="573" y="585" width="8" height="12" fill="#d71920" opacity="0.55"/><rect x="485" y="613" width="8" height="12" fill="#d71920" opacity="0.55"/><rect x="507" y="613" width="8" height="12" fill="#d71920" opacity="0.55"/><rect x="529" y="613" width="8" height="12" fill="#d71920" opacity="0.55"/><rect x="551" y="613" width="8" height="12" fill="#d71920" opacity="0.55"/><rect x="507" y="641" width="8" height="12" fill="#d71920" opacity="0.55"/><rect x="529" y="641" width="8" height="12" fill="#d71920" opacity="0.55"/><rect x="551" y="641" width="8" height="12" fill="#d71920" opacity="0.55"/><rect x="485" y="669" width="8" height="12" fill="#d71920" opacity="0.55"/><rect x="529" y="669" width="8" height="12" fill="#d71920" opacity="0.55"/><rect x="573" y="669" width="8" height="12" fill="#d71920" opacity="0.55"/><rect x="485" y="697" width="8" height="12" fill="#d71920" opacity="0.55"/><rect x="507" y="697" width="8" height="12" fill="#d71920" opacity="0.55"/><rect x="551" y="697" width="8" height="12" fill="#d71920" opacity="0.55"/><rect x="573" y="697" width="8" height="12" fill="#d71920" opacity="0.55"/><rect x="597" y="566" width="87" height="334" fill="#071426"/><rect x="688" y="609" width="179" height="291" fill="#071426"/><rect x="722" y="629" width="8" height="12" fill="#d71920" opacity="0.55"/><rect x="744" y="629" width="8" height="12" fill="#d71920" opacity="0.55"/><rect x="766" y="629" width="8" height="12" fill="#d71920" opacity="0.55"/><rect x="810" y="629" width="8" height="12" fill="#d71920" opacity="0.55"/><rect x="722" y="657" width="8" height="12" fill="#d71920" opacity="0.55"/><rect x="700" y="685" width="8" height="12" fill="#d71920" opacity="0.55"/><rect x="832" y="685" width="8" height="12" fill="#d71920" opacity="0.55"/><rect x="871" y="554" width="137" height="346" fill="#071426"/><rect x="1012" y="521" width="99" height="379" fill="#071426"/><rect x="1024" y="541" width="8" height="12" fill="#d71920" opacity="0.55"/><rect x="1068" y="541" width="8" height="12" fill="#d71920" opacity="0.55"/><rect x="1090" y="541" width="8" height="12" fill="#d71920" opacity="0.55"/><rect x="1090" y="569" width="8" height="12" fill="#d71920" opacity="0.55"/><rect x="1024" y="597" width="8" height="12" fill="#d71920" opacity="0.55"/><rect x="1068" y="597" width="8" height="12" fill="#d71920" opacity="0.55"/><rect x="1090" y="597" width="8" height="12" fill="#d71920" opacity="0.55"/><rect x="1024" y="625" width="8" height="12" fill="#d71920" opacity="0.55"/><rect x="1046" y="625" width="8" height="12" fill="#d71920" opacity="0.55"/><rect x="1090" y="625" width="8" height="12" fill="#d71920" opacity="0.55"/><rect x="1024" y="653" width="8" height="12" fill="#d71920" opacity="0.55"/><rect x="1046" y="653" width="8" height="12" fill="#d71920" opacity="0.55"/><rect x="1024" y="681" width="8" height="12" fill="#d71920" opacity="0.55"/><rect x="1090" y="681" width="8" height="12" fill="#d71920" opacity="0.55"/><rect x="1115" y="491" width="167" height="409" fill="#071426"/><rect x="1286" y="523" width="63" height="377" fill="#071426"/><rect x="1298" y="543" width="8" height="12" fill="#d71920" opacity="0.55"/><rect x="1320" y="543" width="8" height="12" fill="#d71920" opacity="0.55"/><rect x="1298" y="627" width="8" height="12" fill="#d71920" opacity="0.55"/><rect x="1298" y="683" width="8" height="12" fill="#d71920" opacity="0.55"/><rect x="1320" y="683" width="8" height="12" fill="#d71920" opacity="0.55"/><rect x="1353" y="531" width="94" height="369" fill="#071426"/><rect x="1387" y="551" width="8" height="12" fill="#d71920" opacity="0.55"/><rect x="1431" y="551" width="8" height="12" fill="#d71920" opacity="0.55"/><rect x="1365" y="579" width="8" height="12" fill="#d71920" opacity="0.55"/><rect x="1409" y="579" width="8" height="12" fill="#d71920" opacity="0.55"/><rect x="1365" y="607" width="8" height="12" fill="#d71920" opacity="0.55"/><rect x="1387" y="607" width="8" height="12" fill="#d71920" opacity="0.55"/><rect x="1409" y="607" width="8" height="12" fill="#d71920" opacity="0.55"/><rect x="1409" y="635" width="8" height="12" fill="#d71920" opacity="0.55"/><rect x="1409" y="663" width="8" height="12" fill="#d71920" opacity="0.55"/><rect x="1365" y="691" width="8" height="12" fill="#d71920" opacity="0.55"/><rect x="1431" y="691" width="8" height="12" fill="#d71920" opacity="0.55"/><rect x="1451" y="593" width="174" height="307" fill="#071426"/><rect x="1463" y="613" width="8" height="12" fill="#d71920" opacity="0.55"/><rect x="1485" y="613" width="8" height="12" fill="#d71920" opacity="0.55"/><rect x="1507" y="613" width="8" height="12" fill="#d71920" opacity="0.55"/><rect x="1551" y="613" width="8" height="12" fill="#d71920" opacity="0.55"/><rect x="1573" y="613" width="8" height="12" fill="#d71920" opacity="0.55"/><rect x="1485" y="641" width="8" height="12" fill="#d71920" opacity="0.55"/><rect x="1507" y="641" width="8" height="12" fill="#d71920" opacity="0.55"/><rect x="1573" y="641" width="8" height="12" fill="#d71920" opacity="0.55"/><rect x="1463" y="669" width="8" height="12" fill="#d71920" opacity="0.55"/><rect x="1485" y="669" width="8" height="12" fill="#d71920" opacity="0.55"/><rect x="1529" y="669" width="8" height="12" fill="#d71920" opacity="0.55"/><rect x="1573" y="669" width="8" height="12" fill="#d71920" opacity="0.55"/><rect x="1595" y="669" width="8" height="12" fill="#d71920" opacity="0.55"/><rect x="1463" y="697" width="8" height="12" fill="#d71920" opacity="0.55"/><rect x="1507" y="697" width="8" height="12" fill="#d71920" opacity="0.55"/><rect x="1529" y="697" width="8" height="12" fill="#d71920" opacity="0.55"/><rect x="1551" y="697" width="8" height="12" fill="#d71920" opacity="0.55"/><rect x="1595" y="697" width="8" height="12" fill="#d71920" opacity="0.55"/><g font-family="Arial, Helvetica, sans-serif" font-weight="700" letter-spacing="3"><rect x="702" y="828" width="196" height="40" fill="#000" opacity="0.45"/><text x="718" y="855" font-size="20" fill="#fff" opacity="0.9">DEMO IMAGE</text></g></svg>