<svg xmlns="http://www.w3.org/2000/svg" viewBox="0 0 1600 900" width="1600" height="900" role="img" aria-label="Demo placeholder illustration">
<defs><linearGradient id="bg" x1="0" y1="0" x2="0" y2="1"><stop offset="0" stop-color="#22262e"/><stop offset="1" stop-color="#15181e"/></linearGradient></defs>
<rect width="1600" height="900" fill="url(#bg)"/><rect x="-20" y="278" width="89" height="622" fill="#4b5363"/><rect x="73" y="248" width="90" height="652" fill="#4b5363"/><rect x="168" y="245" width="106" height="655" fill="#4b5363"/><rect x="277" y="227" width="143" height="673" fill="#4b5363"/><rect x="424" y="127" width="146" height="773" fill="#4b5363"/><rect x="574" y="363" width="142" height="537" fill="#4b5363"/><rect x="720" y="196" width="67" height="704" fill="#4b5363"/><rect x="791" y="205" width="118" height="695" fill="#4b5363"/><rect x="914" y="212" width="106" height="688" fill="#4b5363"/><rect x="1024" y="137" width="126" height="763" fill="#4b5363"/><rect x="1154" y="400" width="73" height="500" fill="#4b5363"/><rect x="1231" y="125" width="118" height="775" fill="#4b5363"/><rect x="1353" y="154" width="160" height="746" fill="#4b5363"/><rect x="1517" y="408" width="104" height="492" fill="#4b5363"/><rect x="-20" y="305" width="167" height="595" fill="#353b47"/><rect x="151" y="352" width="113" height="548" fill="#353b47"/><rect x="268" y="309" width="119" height="591" fill="#353b47"/><rect x="391" y="346" width="123" height="554" fill="#353b47"/><rect x="518" y="316" width="80" height="584" fill="#353b47"/><rect x="603" y="504" width="125" height="396" fill="#353b47"/><rect x="731" y="423" width="157" height="477" fill="#353b47"/><rect x="892" y="483" width="63" height="417" fill="#353b47"/><rect x="959" y="490" width="129" height="410" fill="#353b47"/><rect x="1092" y="468" width="135" height="432" fill="#353b47"/><rect x="1231" y="519" width="113" height="381" fill="#353b47"/><rect x="1348" y="340" width="150" height="560" fill="#353b47"/><rect x="1503" y="475" width="73" height="425" fill="#353b47"/><rect x="1580" y="412" width="68" height="488" fill="#353b47"/><rect x="-20" y="626" width="130" height="274" fill="#15181e"/><rect x="114" y="520" width="176" height="380" fill="#15181e"/><rect x="294" y="602" width="76" height="298" fill="#15181e"/><rect x="375" y="515" width="69" height="385" fill="#15181e"/><rect x="448" y="594" width="154" height="306" fill="#15181e"/><rect x="482" y="614" width="8" height="12" fill="#1646c8" opacity="0.55"/><rect x="526" y="614" width="8" height="12" fill="#1646c8" opacity="0.55"/><rect x="460" y="642" width="8" height="12" fill="#1646c8" opacity="0.55"/><rect x="504" y="642" width="8" height="12" fill="#1646c8" opacity="0.55"/><rect x="570" y="670" width="8" height="12" fill="#1646c8" opacity="0.55"/><rect x="460" y="698" width="8" height="12" fill="#1646c8" opacity="0.55"/><rect x="504" y="698" width="8" height="12" fill="#1646c8" opacity="0.55"/><rect x="548" y="698" width="8" height="12" fill="#1646c8" opacity="0.55"/><rect x="606" y="528" width="155" height="372" fill="#15181e"/><rect x="765" y="491" width="171" height="409" fill="#15181e"/><rect x="821" y="511" width="8" height="12" fill="#1646c8" opacity="0.55"/><rect x="843" y="511" width="8" height="12" fill="#1646c8" opacity="0.55"/><rect x="887" y="511" width="8" height="12" fill="#1646c8" opacity="0.55"/><rect x="909" y="511" width="8" height="12" fill="#1646c8" opacity="0.55"/><rect x="821" y="539" width="8" height="12" fill="#1646c8" opacity="0.55"/><rect x="843" y="539" width="8" height="12" fill="#1646c8" opacity="0.55"/><rect x="887" y="539" width="8" height="12" fill="#1646c8" opacity="0.55"/><rect x="909" y="539" width="8" height="12" fill="#1646c8" opacity="0.55"/><rect x="821" y="567" width="8" height="12" fill="#1646c8" opacity="0.55"/><rect x="909" y="567" width="8" height="12" fill="#1646c8" opacity="0.55"/><rect x="777" y="595" width="8" height="12" fill="#1646c8" opacity="0.55"/><rect x="865" y="595" width="8" height="12" fill="#1646c8" opacity="0.55"/><rect x="909" y="595" width="8" height="12" fill="#1646c8" opacity="0.55"/><rect x="821" y="623" width="8" height="12" fill="#1646c8" opacity="0.55"/><rect x="887" y="623" width="8" height="12" fill="#1646c8" opacity="0.55"/><rect x="909" y="623" width="8" height="12" fill="#1646c8" opacity="0.55"/><rect x="821" y="651" width="8" height="12" fill="#1646c8" opacity="0.55"/><rect x="843" y="651" width="8" height="12" fill="#1646c8" opacity="0.55"/><rect x="887" y="651" width="8" height="12" fill="#1646c8" opacity="0.55"/><rect x="909" y="651" width="8" height="12" fill="#1646c8" opacity="0.55"/><rect x="777" y="679" width="8" height="12" fill="#1646c8" opacity="0.55"/><rect x="799" y="679" width="8" height="12" fill="#1646c8" opacity="0.55"/><rect x="939" y="522" width="158" height="378" fill="#15181e"/><rect x="1101" y="572" width="93" height="328" fill="#15181e"/><rect x="1113" y="592" width="8" height="12" fill="#1646c8" opacity="0.55"/><rect x="1157" y="592" width="8" height="12" fill="#1646c8" opacity="0.55"/><rect x="1113" y="620" width="8" height="12" fill="#1646c8" opacity="0.55"/><rect x="1179" y="620" width="8" height="12" fill="#1646c8" opacity="0.55"/><rect x="1113" y="648" width="8" height="12" fill="#1646c8" opacity="0.55"/><rect x="1135" y="648" width="8" height="12" fill="#1646c8" opacity="0.55"/><rect x="1179" y="676" width="8" height="12" fill="#1646c8" opacity="0.55"/><rect x="1198" y="479" width="179" height="421" fill="#15181e"/><rect x="1381" y="574" width="66" height="326" fill="#15181e"/><rect x="1451" y="587" width="122" height="313" fill="#15181e"/><rect x="1577" y="505" width="178" height="395" fill="#15181e"/><g font-family="Arial, Helvetica, sans-serif" font-weight="700" letter-spacing="3"><rect x="702" y="828" width="196" height="40" fill="#000" opacity="0.45"/><text x="718" y="855" font-size="20" fill="#fff" opacity="0.9">DEMO IMAGE</text></g></svg>