<svg xmlns="http://www.w3.org/2000/svg" viewBox="0 0 1600 900" width="1600" height="900" role="img" aria-label="Demo placeholder illustration">
<defs><linearGradient id="bg" x1="0" y1="0" x2="0" y2="1"><stop offset="0" stop-color="#3b2a1f"/><stop offset="1" stop-color="#241910"/></linearGradient></defs>
<rect width="1600" height="900" fill="url(#bg)"/><rect x="288" y="702" width="1024" height="198" fill="#241910"/><polygon points="320,324 800,144 1280,324" fill="#7d5b43"/><rect x="320" y="324" width="960" height="30" fill="#5a4030"/><rect x="368" y="354" width="56.00000000000001" height="348" fill="#7d5b43"/><rect x="488" y="354" width="56.00000000000001" height="348" fill="#7d5b43"/><rect x="608" y="354" width="56.00000000000001" height="348" fill="#7d5b43"/><rect x="728" y="354" width="56.00000000000001" height="348" fill="#7d5b43"/><rect x="848" y="354" width="56.00000000000001" height="348" fill="#7d5b43"/><rect x="968" y="354" width="56.00000000000001" height="348" fill="#7d5b43"/><rect x="1088" y="354" width="56.00000000000001" height="348" fill="#7d5b43"/><rect x="1208" y="354" width="56.00000000000001" height="348" fill="#7d5b43"/><rect x="792" y="18" width="6" height="135" fill="#7d5b43"/><rect x="800" y="18" width="70" height="44" fill="#d71920" opacity="0.9"/><g font-family="Arial, Helvetica, sans-serif" font-weight="700" letter-spacing="3"><rect x="702" y="828" width="196" height="40" fill="#000" opacity="0.45"/><text x="718" y="855" font-size="20" fill="#fff" opacity="0.9">DEMO IMAGE</text></g></svg>