<svg xmlns="http://www.w3.org/2000/svg" viewBox="0 0 1600 900" width="1600" height="900" role="img" aria-label="Demo placeholder illustration">
<defs><linearGradient id="bg" x1="0" y1="0" x2="0" y2="1"><stop offset="0" stop-color="#3b2a1f"/><stop offset="1" stop-color="#241910"/></linearGradient></defs>
<rect width="1600" height="900" fill="url(#bg)"/><rect y="702" width="1600" height="198" fill="#241910"/><polygon points="40,378 270,378 290,468 20,468" fill="#d71920"/><rect x="20" y="378" width="27" height="90" fill="#ffffff" opacity="0.12"/><rect x="74" y="378" width="27" height="90" fill="#ffffff" opacity="0.12"/><rect x="128" y="378" width="27" height="90" fill="#ffffff" opacity="0.12"/><rect x="182" y="378" width="27" height="90" fill="#ffffff" opacity="0.12"/><rect x="236" y="378" width="27" height="90" fill="#ffffff" opacity="0.12"/><rect x="40" y="468" width="230" height="234" fill="#5a4030" opacity="0.8"/><circle cx="65" cy="630" r="14" fill="#d71920"/><circle cx="101" cy="630" r="14" fill="#7d5b43"/><circle cx="137" cy="630" r="14" fill="#d71920"/><circle cx="173" cy="630" r="14" fill="#7d5b43"/><circle cx="209" cy="630" r="14" fill="#d71920"/><circle cx="245" cy="630" r="14" fill="#7d5b43"/><polygon points="300,378 530,378 550,468 280,468" fill="#7d5b43"/><rect x="280" y="378" width="27" height="90" fill="#ffffff" opacity="0.12"/><rect x="334" y="378" width="27" height="90" fill="#ffffff" opacity="0.12"/><rect x="388" y="378" width="27" height="90" fill="#ffffff" opacity="0.12"/><rect x="442" y="378" width="27" height="90" fill="#ffffff" opacity="0.12"/><rect x="496" y="378" width="27" height="90" fill="#ffffff" opacity="0.12"/><rect x="300" y="468" width="230" height="234" fill="#5a4030" opacity="0.8"/><circle cx="325" cy="630" r="14" fill="#d71920"/><circle cx="361" cy="630" r="14" fill="#7d5b43"/><circle cx="397" cy="630" r="14" fill="#d71920"/><circle cx="433" cy="630" r="14" fill="#7d5b43"/><circle cx="469" cy="630" r="14" fill="#d71920"/><circle cx="505" cy="630" r="14" fill="#7d5b43"/><polygon points="560,378 790,378 810,468 540,468" fill="#5a4030"/><rect x="540" y="378" width="27" height="90" fill="#ffffff" opacity="0.12"/><rect x="594" y="378" width="27" height="90" fill="#ffffff" opacity="0.12"/><rect x="648" y="378" width="27" height="90" fill="#ffffff" opacity="0.12"/><rect x="702" y="378" width="27" height="90" fill="#ffffff" opacity="0.12"/><rect x="756" y="378" width="27" height="90" fill="#ffffff" opacity="0.12"/><rect x="560" y="468" width="230" height="234" fill="#5a4030" opacity="0.8"/><circle cx="585" cy="630" r="14" fill="#d71920"/><circle cx="621" cy="630" r="14" fill="#7d5b43"/><circle cx="657" cy="630" r="14" fill="#d71920"/><circle cx="693" cy="630" r="14" fill="#7d5b43"/><circle cx="729" cy="630" r="14" fill="#d71920"/><circle cx="765" cy="630" r="14" fill="#7d5b43"/><polygon points="820,378 1050,378 1070,468 800,468" fill="#d71920"/><rect x="800" y="378" width="27" height="90" fill="#ffffff" opacity="0.12"/><rect x="854" y="378" width="27" height="90" fill="#ffffff" opacity="0.12"/><rect x="908" y="378" width="27" height="90" fill="#ffffff" opacity="0.12"/><rect x="962" y="378" width="27" height="90" fill="#ffffff" opacity="0.12"/><rect x="1016" y="378" width="27" height="90" fill="#ffffff" opacity="0.12"/><rect x="820" y="468" width="230" height="234" fill="#5a4030" opacity="0.8"/><circle cx="845" cy="630" r="14" fill="#d71920"/><circle cx="881" cy="630" r="14" fill="#7d5b43"/><circle cx="917" cy="630" r="14" fill="#d71920"/><circle cx="953" cy="630" r="14" fill="#7d5b43"/><circle cx="989" cy="630" r="14" fill="#d71920"/><circle cx="1025" cy="630" r="14" fill="#7d5b43"/><polygon points="1080,378 1310,378 1330,468 1060,468" fill="#7d5b43"/><rect x="1060" y="378" width="27" height="90" fill="#ffffff" opacity="0.12"/><rect x="1114" y="378" width="27" height="90" fill="#ffffff" opacity="0.12"/><rect x="1168" y="378" width="27" height="90" fill="#ffffff" opacity="0.12"/><rect x="1222" y="378" width="27" height="90" fill="#ffffff" opacity="0.12"/><rect x="1276" y="378" width="27" height="90" fill="#ffffff" opacity="0.12"/><rect x="1080" y="468" width="230" height="234" fill="#5a4030" opacity="0.8"/><circle cx="1105" cy="630" r="14" fill="#d71920"/><circle cx="1141" cy="630" r="14" fill="#7d5b43"/><circle cx="1177" cy="630" r="14" fill="#d71920"/><circle cx="1213" cy="630" r="14" fill="#7d5b43"/><circle cx="1249" cy="630" r="14" fill="#d71920"/><circle cx="1285" cy="630" r="14" fill="#7d5b43"/><polygon points="1340,378 1570,378 1590,468 1320,468" fill="#5a4030"/><rect x="1320" y="378" width="27" height="90" fill="#ffffff" opacity="0.12"/><rect x="1374" y="378" width="27" height="90" fill="#ffffff" opacity="0.12"/><rect x="1428" y="378" width="27" height="90" fill="#ffffff" opacity="0.12"/><rect x="1482" y="378" width="27" height="90" fill="#ffffff" opacity="0.12"/><rect x="1536" y="378" width="27" height="90" fill="#ffffff" opacity="0.12"/><rect x="1340" y="468" width="230" height="234" fill="#5a4030" opacity="0.8"/><circle cx="1365" cy="630" r="14" fill="#d71920"/><circle cx="1401" cy="630" r="14" fill="#7d5b43"/><circle cx="1437" cy="630" r="14" fill="#d71920"/><circle cx="1473" cy="630" r="14" fill="#7d5b43"/><circle cx="1509" cy="630" r="14" fill="#d71920"/><circle cx="1545" cy="630" r="14" fill="#7d5b43"/><g font-family="Arial, Helvetica, sans-serif" font-weight="700" letter-spacing="3"><rect x="1372" y="32" width="196" height="40" fill="#000" opacity="0.45"/><text x="1388" y="59" font-size="20" fill="#fff" opacity="0.9">DEMO IMAGE</text></g></svg>